Coordinates
version=1
nRows=14
nColumns=36
inDegrees=yes

Units are S.I. units (second, meters, Newtons, ...)
If the header above contains a line with 'inDegrees', this indicates whether rotational values are in degrees (yes) or radians (no).

endheader
time	pelvis_tilt	pelvis_list	pelvis_rotation	pelvis_tx	pelvis_ty	pelvis_tz	hip_flexion_r	hip_adduction_r	hip_rotation_r	knee_angle_r	knee_angle_r_beta	ankle_angle_r	subtalar_angle_r	mtp_angle_r	hip_flexion_l	hip_adduction_l	hip_rotation_l	knee_angle_l	knee_angle_l_beta	ankle_angle_l	subtalar_angle_l	mtp_angle_l	lumbar_extension	lumbar_bending	lumbar_rotation	arm_flex_r	arm_add_r	arm_rot_r	elbow_flex_r	pro_sup_r	arm_flex_l	arm_add_l	arm_rot_l	elbow_flex_l	pro_sup_l
      2.80000000	    -17.17736764	     -1.10811810	      3.22760931	      0.79452910	      0.79412530	     -0.61031408	     66.63821753	     -8.40725803	     -0.49645010	     68.98314772	      1.20398306	     13.14072337	    -10.16201415	     -7.49999987	     67.96800529	     -9.48993667	      3.61505485	     66.80923700	      1.16604116	     11.08481642	    -12.36930544	     -7.49999987	    -27.58903258	      1.34062425	     -2.86440365	    101.56333911	    -43.62739877	     44.48027975	    126.92654512	     60.26749932	     94.59066674	    -42.29651652	     43.81964225	    125.73013291	     69.67833701
      2.81666670	    -19.15063361	     -1.67926077	      3.13329890	      0.79980458	      0.76502302	     -0.60706774	     72.48996578	     -8.13048143	     -0.17282745	     76.26697468	      1.33110982	     17.51091060	    -10.29606772	     -7.49999987	     74.28358158	    -10.29907932	      4.70939508	     74.26133178	      1.29610475	     14.91261858	    -12.02341186	     -7.49999987	    -28.89000876	      1.45060231	     -2.37680150	    104.49518356	    -43.81068946	     43.77362990	    128.16879078	     59.72571423	     98.49158982	    -42.84732148	     44.29040937	    127.71372196	     69.58459696
      2.83333330	    -20.88440386	     -1.99841597	      3.06230331	      0.79993417	      0.73433722	     -0.60857949	     77.80595574	     -8.51290030	      0.08821449	     82.44202392	      1.43888476	     20.80764129	     -9.74363038	     -7.49999987	     79.63095365	    -10.83778075	      5.62303502	     80.35762239	      1.40250509	     17.81557532	    -11.26880404	     -7.49999987	    -30.68927364	      1.56751782	     -1.43900612	    108.78265796	    -44.47077656	     45.31279554	    128.06483884	     58.18567618	    103.29204382	    -42.40732871	     46.97824493	    128.25152197	     67.51803479
      2.85000000	    -22.85939356	     -2.22119253	      2.86203856	      0.80446804	      0.71151158	     -0.61581925	     82.47416849	     -9.29566193	      0.19524672	     87.07526883	      1.51975014	     23.34297853	     -8.75127695	     -7.49999987	     84.21466546	    -11.10660484	      6.43274714	     84.95043319	      1.48266476	     19.86436557	    -10.39339856	     -7.49999987	    -31.73277932	      1.89584508	      0.31399341	    111.69512748	    -46.02823402	     47.70521646	    128.81281224	     57.97683346	    103.68284777	    -39.05671038	     46.37215672	    127.65220202	     66.20933184
      2.86666670	    -25.03439605	     -2.38643854	      2.81238058	      0.80594145	      0.69359087	     -0.61677122	     86.67628912	    -10.28930498	      0.22734312	     90.41506955	      1.57804066	     25.15177316	     -7.27836731	     -7.49999987	     88.33627566	    -11.06058313	      7.08283326	     88.12850773	      1.53813262	     21.36287702	     -9.23589054	     -7.49999987	    -32.92870801	      2.28390781	      1.30937496	    114.36215309	    -46.39227138	     50.50074199	    126.95192765	     56.22643017	    105.12860804	    -38.07516126	     47.56990477	    125.13770363	     65.06814161
      2.88333330	    -27.04315943	     -2.35083371	      2.55225234	      0.80997311	      0.67955876	     -0.62531527	     90.16394475	    -11.33679238	      0.37963629	     92.79899789	      1.61964806	     26.54223590	     -5.67859096	     -7.49999987	     91.55868735	    -11.03078108	      7.32840182	     90.36701878	      1.57720201	     22.50849986	     -8.03803517	     -7.49999987	    -33.84635356	      2.68114853	      1.36020306	    112.74559272	    -45.51686400	     49.74029346	    126.97695740	     56.04246186	    104.36709416	    -37.62799442	     46.90704189	    125.43639882	     65.52470660
      2.90000000	    -28.36044283	     -2.33137488	      2.18873793	      0.81841111	      0.65403843	     -0.62702700	     93.19634538	    -12.07029268	      0.84074332	     95.75767838	      1.67128677	     28.05177393	     -4.30598316	     -7.49999987	     94.38757609	    -11.14525780	      7.89158570	     93.33924850	      1.62907721	     24.23118922	     -6.44895010	     -7.49999987	    -34.16802545	      2.89500770	      1.71814002	    112.11461257	    -44.55417519	     49.01808158	    126.97167249	     55.80766140	    104.68519624	    -36.92065651	     46.99456997	    125.31554127	     65.98643581
      2.91666670	    -29.53370314	     -1.96099511	      1.59341673	      0.82534412	      0.63351278	     -0.63092631	     96.21706668	    -12.50305706	      1.76167133	     98.88560407	      1.72587937	     29.32575731	     -3.34313774	     -7.49999987	     97.20373206	    -11.39413662	      8.28403751	     96.81858482	      1.68980308	     26.17609162	     -5.07863463	     -7.49999987	    -33.94510776	      2.54199641	      2.15582678	    108.68604943	    -43.63839233	     46.64997649	    127.76473477	     56.13195366	    103.13358323	    -34.89303234	     45.08515168	    125.48935621	     67.77112911
      2.93333330	    -30.42346659	     -1.59667342	      0.97555881	      0.83270680	      0.62618156	     -0.63246902	     98.14348307	    -12.83657412	      2.31465828	    101.05528114	      1.76374738	     30.48892695	     -2.59256036	     -7.49999987	     98.96572219	    -11.66658601	      8.58348785	     99.41954235	      1.73519835	     28.29795111	     -3.43633222	     -7.49999987	    -34.09707319	      2.27295915	      2.94122074	    106.61169076	    -41.85763501	     44.42798537	    127.05434228	     60.44761701	    100.88564263	    -32.83779634	     43.11966247	    124.29825111	     80.22824173
      2.95000000	    -31.30508416	     -1.23280992	      0.51435478	      0.83521731	      0.62271122	     -0.64029699	     99.47632649	    -13.29473650	      2.78358653	    102.17518126	      1.78329333	     31.35108252	     -2.04684839	     -7.49999987	    100.12358754	    -11.68200149	      8.49014736	    101.00169288	      1.76281209	     29.70376206	     -2.29934786	     -7.49999987	    -34.81033831	      2.39670188	      3.47376543	    104.96727941	    -41.22626992	     44.71401395	    125.88198949	     60.38739187	     98.83951727	    -32.03105295	     43.12495533	    123.17726305	     80.49549032
      2.96666670	    -31.75562522	     -0.93787772	     -0.16306861	      0.84316425	      0.60680265	     -0.63180791	    100.68620909	    -13.07912097	      3.16445292	    103.77690068	      1.81124860	     32.29119266	     -1.64966847	     -7.49999987	    101.11496786	    -12.21749970	      8.70444761	    102.83095356	      1.79473871	     30.89517029	     -1.73108000	     -7.49999987	    -35.14295626	      1.78556791	      4.55237547	    105.20922372	    -39.74052986	     43.93326019	    128.15101158	     60.29579866	     98.42942522	    -32.02799191	     41.69442315	    123.82585892	     81.07663882
      2.98333330	    -32.72838316	     -0.79012451	     -0.57131316	      0.84739465	      0.60396107	     -0.62835095	    101.80956159	    -12.96587750	      3.08810287	    104.63747127	      1.82626839	     33.08761251	     -1.53293125	     -7.49999987	    102.38140970	    -12.58337867	      8.97914745	    104.09662185	      1.81682879	     32.11772238	     -0.85405943	     -7.49999987	    -35.18886281	      1.94732964	      4.64278393	    104.62271079	    -37.66364488	     43.64037923	    128.51591000	     56.43720134	     95.54413684	    -33.48931385	     37.92059471	    124.88371481	     85.14973025
      3.00000000	    -33.40658975	     -0.41240850	     -0.92911363	      0.84134623	      0.59265677	     -0.64350817	    103.16998583	    -13.24502204	      3.39573872	    105.46391222	      1.84069251	     33.64736351	     -1.25475991	     -7.49999987	    103.57026302	    -12.57353053	      8.74406640	    105.35460435	      1.83878473	     32.89314680	     -0.75757317	     -7.49999987	    -35.43062637	      1.74458907	      6.15019519	    106.92012871	    -40.22269794	     43.65841381	    129.20198011	     56.74360349	     97.67177652	    -31.14650670	     38.50842141	    123.37900608	     86.00841106
      3.01666670	    -34.32885977	     -0.04363171	     -1.16751417	      0.84214457	      0.59903260	     -0.64347555	    104.08998147	    -13.42802776	      3.45515793	    105.35203694	      1.83873992	     34.03519169	     -0.81568417	     -7.49999987	    104.29358526	    -12.15674299	      8.47860800	    105.57333538	      1.84260230	     33.33740956	     -0.87161430	     -7.49999987	    -35.41888552	      1.79478512	      6.44679543	    108.61579781	    -40.55880618	     45.94716433	    128.48319133	     57.01242155	     98.69193980	    -31.61838957	     39.37789848	    122.92217860	     85.20367828
